<mxfile host="app.diagrams.net" modified="2024-03-31T20:11:17.135Z" agent="Mozilla/5.0 (Windows NT 10.0; Win64; x64) AppleWebKit/537.36 (KHTML, like Gecko) Chrome/123.0.0.0 Safari/537.36" etag="obuwJ75LBpRrmGJfgscy" version="24.2.0" type="device">
  <diagram name="Page-1" id="16e2658f-23c8-b752-8be9-c03fbebb8bbe">
    <mxGraphModel dx="1185" dy="632" grid="1" gridSize="10" guides="1" tooltips="1" connect="1" arrows="1" fold="1" page="1" pageScale="1" pageWidth="1100" pageHeight="850" background="none" math="0" shadow="0">
      <root>
        <mxCell id="0" />
        <mxCell id="1" parent="0" />
        <mxCell id="BNmmFgK4MU3GEjyBa_c--38" style="edgeStyle=orthogonalEdgeStyle;rounded=0;orthogonalLoop=1;jettySize=auto;html=1;exitX=1;exitY=0.5;exitDx=0;exitDy=0;exitPerimeter=0;endArrow=none;endFill=0;" parent="1" source="6d250d948d6a1778-1" edge="1">
          <mxGeometry relative="1" as="geometry">
            <mxPoint x="260" y="100" as="targetPoint" />
            <Array as="points">
              <mxPoint x="180" y="100" />
            </Array>
          </mxGeometry>
        </mxCell>
        <mxCell id="BNmmFgK4MU3GEjyBa_c--40" style="edgeStyle=orthogonalEdgeStyle;rounded=0;orthogonalLoop=1;jettySize=auto;html=1;exitX=0;exitY=0.5;exitDx=0;exitDy=0;exitPerimeter=0;endArrow=none;endFill=0;" parent="1" source="6d250d948d6a1778-1" edge="1">
          <mxGeometry relative="1" as="geometry">
            <mxPoint x="260" y="440" as="targetPoint" />
            <Array as="points">
              <mxPoint x="180" y="440" />
            </Array>
          </mxGeometry>
        </mxCell>
        <mxCell id="6d250d948d6a1778-1" value="" style="verticalLabelPosition=bottom;shadow=0;dashed=0;align=center;fillColor=#000000;html=1;verticalAlign=top;strokeWidth=1;shape=mxgraph.electrical.miscellaneous.monocell_battery;rounded=1;comic=0;labelBackgroundColor=none;fontFamily=Verdana;fontSize=12;rotation=-90;" parent="1" vertex="1">
          <mxGeometry x="130" y="230" width="100" height="60" as="geometry" />
        </mxCell>
        <mxCell id="BNmmFgK4MU3GEjyBa_c--11" style="edgeStyle=orthogonalEdgeStyle;rounded=0;orthogonalLoop=1;jettySize=auto;html=1;exitX=0.7;exitY=0;exitDx=0;exitDy=0;exitPerimeter=0;endArrow=none;endFill=0;strokeColor=#FF0505;startArrow=classic;startFill=1;" parent="1" source="BNmmFgK4MU3GEjyBa_c--2" edge="1">
          <mxGeometry relative="1" as="geometry">
            <mxPoint x="610" y="100" as="targetPoint" />
            <Array as="points">
              <mxPoint x="806" y="100" />
            </Array>
          </mxGeometry>
        </mxCell>
        <mxCell id="BNmmFgK4MU3GEjyBa_c--2" value="" style="verticalLabelPosition=bottom;shadow=0;dashed=0;align=center;html=1;verticalAlign=top;shape=mxgraph.electrical.mosfets1.mosfet_ic_n;strokeColor=#FF0505;" parent="1" vertex="1">
          <mxGeometry x="760" y="165" width="66" height="70" as="geometry" />
        </mxCell>
        <mxCell id="BNmmFgK4MU3GEjyBa_c--37" style="edgeStyle=orthogonalEdgeStyle;rounded=0;orthogonalLoop=1;jettySize=auto;html=1;exitX=0;exitY=0.5;exitDx=0;exitDy=0;exitPerimeter=0;endArrow=none;endFill=0;strokeColor=#000000;" parent="1" source="BNmmFgK4MU3GEjyBa_c--4" edge="1">
          <mxGeometry relative="1" as="geometry">
            <mxPoint x="260" y="100" as="targetPoint" />
          </mxGeometry>
        </mxCell>
        <mxCell id="BNmmFgK4MU3GEjyBa_c--39" style="edgeStyle=orthogonalEdgeStyle;rounded=0;orthogonalLoop=1;jettySize=auto;html=1;exitX=1;exitY=0.5;exitDx=0;exitDy=0;exitPerimeter=0;endArrow=none;endFill=0;strokeColor=#000000;" parent="1" source="BNmmFgK4MU3GEjyBa_c--4" edge="1">
          <mxGeometry relative="1" as="geometry">
            <mxPoint x="260" y="440" as="targetPoint" />
          </mxGeometry>
        </mxCell>
        <mxCell id="BNmmFgK4MU3GEjyBa_c--4" value="" style="pointerEvents=1;verticalLabelPosition=bottom;shadow=0;dashed=0;align=center;html=1;verticalAlign=top;shape=mxgraph.electrical.capacitors.capacitor_3;direction=south;strokeColor=#000000;" parent="1" vertex="1">
          <mxGeometry x="240" y="225" width="40" height="70" as="geometry" />
        </mxCell>
        <mxCell id="BNmmFgK4MU3GEjyBa_c--13" style="edgeStyle=orthogonalEdgeStyle;rounded=0;orthogonalLoop=1;jettySize=auto;html=1;exitX=0.7;exitY=1;exitDx=0;exitDy=0;exitPerimeter=0;endArrow=none;endFill=0;" parent="1" source="BNmmFgK4MU3GEjyBa_c--7" edge="1">
          <mxGeometry relative="1" as="geometry">
            <mxPoint x="620" y="440" as="targetPoint" />
            <Array as="points">
              <mxPoint x="806" y="440" />
            </Array>
          </mxGeometry>
        </mxCell>
        <mxCell id="BNmmFgK4MU3GEjyBa_c--7" value="" style="verticalLabelPosition=bottom;shadow=0;dashed=0;align=center;html=1;verticalAlign=top;shape=mxgraph.electrical.mosfets1.mosfet_ic_n;" parent="1" vertex="1">
          <mxGeometry x="760" y="285" width="66" height="70" as="geometry" />
        </mxCell>
        <mxCell id="BNmmFgK4MU3GEjyBa_c--8" value="" style="verticalLabelPosition=bottom;shadow=0;dashed=0;align=center;html=1;verticalAlign=top;shape=mxgraph.electrical.mosfets1.mosfet_ic_n;" parent="1" vertex="1">
          <mxGeometry x="570" y="165" width="66" height="70" as="geometry" />
        </mxCell>
        <mxCell id="BNmmFgK4MU3GEjyBa_c--9" value="" style="verticalLabelPosition=bottom;shadow=0;dashed=0;align=center;html=1;verticalAlign=top;shape=mxgraph.electrical.mosfets1.mosfet_ic_n;strokeColor=#000000;" parent="1" vertex="1">
          <mxGeometry x="570" y="285" width="66" height="70" as="geometry" />
        </mxCell>
        <mxCell id="BNmmFgK4MU3GEjyBa_c--43" style="edgeStyle=orthogonalEdgeStyle;rounded=0;orthogonalLoop=1;jettySize=auto;html=1;exitX=1;exitY=1;exitDx=0;exitDy=0;exitPerimeter=0;endArrow=none;endFill=0;strokeColor=#FF0505;startArrow=classic;startFill=1;" parent="1" edge="1">
          <mxGeometry relative="1" as="geometry">
            <mxPoint x="806" y="264" as="targetPoint" />
            <mxPoint x="756" y="264" as="sourcePoint" />
            <Array as="points">
              <mxPoint x="766" y="264" />
              <mxPoint x="766" y="264" />
            </Array>
          </mxGeometry>
        </mxCell>
        <mxCell id="BNmmFgK4MU3GEjyBa_c--46" style="edgeStyle=orthogonalEdgeStyle;rounded=0;orthogonalLoop=1;jettySize=auto;html=1;exitX=0;exitY=1;exitDx=0;exitDy=0;exitPerimeter=0;endArrow=classic;endFill=1;strokeColor=#FF0505;" parent="1" edge="1">
          <mxGeometry relative="1" as="geometry">
            <mxPoint x="616" y="264" as="targetPoint" />
            <mxPoint x="666" y="264" as="sourcePoint" />
            <Array as="points">
              <mxPoint x="646" y="264" />
            </Array>
          </mxGeometry>
        </mxCell>
        <mxCell id="BNmmFgK4MU3GEjyBa_c--17" value="" style="pointerEvents=1;verticalLabelPosition=bottom;shadow=0;dashed=0;align=center;html=1;verticalAlign=top;shape=mxgraph.electrical.inductors.inductor_3;strokeColor=#FF0505;" parent="1" vertex="1">
          <mxGeometry x="660" y="256" width="100" height="8" as="geometry" />
        </mxCell>
        <mxCell id="BNmmFgK4MU3GEjyBa_c--25" value="" style="pointerEvents=1;fillColor=strokeColor;verticalLabelPosition=bottom;shadow=0;dashed=0;align=center;html=1;verticalAlign=top;shape=mxgraph.electrical.diodes.diode;rotation=-90;strokeColor=#FF0505;" parent="1" vertex="1">
          <mxGeometry x="630" y="191.5" width="44" height="17" as="geometry" />
        </mxCell>
        <mxCell id="BNmmFgK4MU3GEjyBa_c--26" style="edgeStyle=orthogonalEdgeStyle;rounded=0;orthogonalLoop=1;jettySize=auto;html=1;entryX=0.7;entryY=1;entryDx=0;entryDy=0;entryPerimeter=0;endArrow=none;endFill=0;strokeColor=#FF0505;" parent="1" source="BNmmFgK4MU3GEjyBa_c--25" target="BNmmFgK4MU3GEjyBa_c--8" edge="1">
          <mxGeometry relative="1" as="geometry">
            <Array as="points">
              <mxPoint x="652" y="230" />
              <mxPoint x="616" y="230" />
            </Array>
          </mxGeometry>
        </mxCell>
        <mxCell id="BNmmFgK4MU3GEjyBa_c--27" style="edgeStyle=orthogonalEdgeStyle;rounded=0;orthogonalLoop=1;jettySize=auto;html=1;endArrow=classic;endFill=1;strokeColor=#FF0505;" parent="1" source="BNmmFgK4MU3GEjyBa_c--25" edge="1">
          <mxGeometry relative="1" as="geometry">
            <mxPoint x="616" y="100" as="targetPoint" />
            <Array as="points">
              <mxPoint x="652" y="170" />
              <mxPoint x="616" y="170" />
            </Array>
          </mxGeometry>
        </mxCell>
        <mxCell id="BNmmFgK4MU3GEjyBa_c--28" value="" style="pointerEvents=1;fillColor=strokeColor;verticalLabelPosition=bottom;shadow=0;dashed=0;align=center;html=1;verticalAlign=top;shape=mxgraph.electrical.diodes.diode;rotation=-90;" parent="1" vertex="1">
          <mxGeometry x="820" y="191.5" width="44" height="17" as="geometry" />
        </mxCell>
        <mxCell id="BNmmFgK4MU3GEjyBa_c--29" style="edgeStyle=orthogonalEdgeStyle;rounded=0;orthogonalLoop=1;jettySize=auto;html=1;entryX=0.7;entryY=1;entryDx=0;entryDy=0;entryPerimeter=0;endArrow=none;endFill=0;" parent="1" source="BNmmFgK4MU3GEjyBa_c--28" edge="1">
          <mxGeometry relative="1" as="geometry">
            <mxPoint x="806" y="235" as="targetPoint" />
            <Array as="points">
              <mxPoint x="842" y="230" />
              <mxPoint x="806" y="230" />
            </Array>
          </mxGeometry>
        </mxCell>
        <mxCell id="BNmmFgK4MU3GEjyBa_c--30" style="edgeStyle=orthogonalEdgeStyle;rounded=0;orthogonalLoop=1;jettySize=auto;html=1;entryX=0.7;entryY=0;entryDx=0;entryDy=0;entryPerimeter=0;endArrow=none;endFill=0;" parent="1" source="BNmmFgK4MU3GEjyBa_c--28" edge="1">
          <mxGeometry relative="1" as="geometry">
            <mxPoint x="806" y="165" as="targetPoint" />
            <Array as="points">
              <mxPoint x="842" y="170" />
              <mxPoint x="806" y="170" />
            </Array>
          </mxGeometry>
        </mxCell>
        <mxCell id="BNmmFgK4MU3GEjyBa_c--31" value="" style="pointerEvents=1;fillColor=strokeColor;verticalLabelPosition=bottom;shadow=0;dashed=0;align=center;html=1;verticalAlign=top;shape=mxgraph.electrical.diodes.diode;rotation=-90;" parent="1" vertex="1">
          <mxGeometry x="820" y="311.5" width="44" height="17" as="geometry" />
        </mxCell>
        <mxCell id="BNmmFgK4MU3GEjyBa_c--32" style="edgeStyle=orthogonalEdgeStyle;rounded=0;orthogonalLoop=1;jettySize=auto;html=1;entryX=0.7;entryY=1;entryDx=0;entryDy=0;entryPerimeter=0;endArrow=none;endFill=0;" parent="1" source="BNmmFgK4MU3GEjyBa_c--31" edge="1">
          <mxGeometry relative="1" as="geometry">
            <mxPoint x="806" y="355" as="targetPoint" />
            <Array as="points">
              <mxPoint x="842" y="350" />
              <mxPoint x="806" y="350" />
            </Array>
          </mxGeometry>
        </mxCell>
        <mxCell id="BNmmFgK4MU3GEjyBa_c--33" style="edgeStyle=orthogonalEdgeStyle;rounded=0;orthogonalLoop=1;jettySize=auto;html=1;entryX=0.7;entryY=0;entryDx=0;entryDy=0;entryPerimeter=0;endArrow=none;endFill=0;" parent="1" source="BNmmFgK4MU3GEjyBa_c--31" edge="1">
          <mxGeometry relative="1" as="geometry">
            <mxPoint x="806" y="285" as="targetPoint" />
            <Array as="points">
              <mxPoint x="842" y="290" />
              <mxPoint x="806" y="290" />
            </Array>
          </mxGeometry>
        </mxCell>
        <mxCell id="BNmmFgK4MU3GEjyBa_c--34" value="" style="pointerEvents=1;fillColor=strokeColor;verticalLabelPosition=bottom;shadow=0;dashed=0;align=center;html=1;verticalAlign=top;shape=mxgraph.electrical.diodes.diode;rotation=-90;" parent="1" vertex="1">
          <mxGeometry x="630" y="312.5" width="44" height="17" as="geometry" />
        </mxCell>
        <mxCell id="BNmmFgK4MU3GEjyBa_c--35" style="edgeStyle=orthogonalEdgeStyle;rounded=0;orthogonalLoop=1;jettySize=auto;html=1;entryX=0.7;entryY=1;entryDx=0;entryDy=0;entryPerimeter=0;endArrow=none;endFill=0;" parent="1" source="BNmmFgK4MU3GEjyBa_c--34" edge="1">
          <mxGeometry relative="1" as="geometry">
            <mxPoint x="616" y="356" as="targetPoint" />
            <Array as="points">
              <mxPoint x="652" y="351" />
              <mxPoint x="616" y="351" />
            </Array>
          </mxGeometry>
        </mxCell>
        <mxCell id="BNmmFgK4MU3GEjyBa_c--36" style="edgeStyle=orthogonalEdgeStyle;rounded=0;orthogonalLoop=1;jettySize=auto;html=1;entryX=0.7;entryY=0;entryDx=0;entryDy=0;entryPerimeter=0;endArrow=none;endFill=0;" parent="1" source="BNmmFgK4MU3GEjyBa_c--34" edge="1">
          <mxGeometry relative="1" as="geometry">
            <mxPoint x="616" y="286" as="targetPoint" />
            <Array as="points">
              <mxPoint x="652" y="291" />
              <mxPoint x="616" y="291" />
            </Array>
          </mxGeometry>
        </mxCell>
        <mxCell id="BNmmFgK4MU3GEjyBa_c--41" value="&lt;font color=&quot;#ff0505&quot; style=&quot;font-size: 25px;&quot;&gt;T2&lt;/font&gt;" style="text;html=1;align=center;verticalAlign=middle;resizable=0;points=[];autosize=1;strokeColor=none;fillColor=none;" parent="1" vertex="1">
          <mxGeometry x="180" y="40" width="50" height="40" as="geometry" />
        </mxCell>
        <mxCell id="BNmmFgK4MU3GEjyBa_c--42" value="" style="endArrow=none;html=1;rounded=0;strokeColor=#000000;endFill=0;" parent="1" edge="1">
          <mxGeometry width="50" height="50" relative="1" as="geometry">
            <mxPoint x="260" y="100" as="sourcePoint" />
            <mxPoint x="610" y="100" as="targetPoint" />
          </mxGeometry>
        </mxCell>
        <mxCell id="BNmmFgK4MU3GEjyBa_c--44" value="" style="endArrow=none;html=1;rounded=0;strokeColor=#FF0505;" parent="1" edge="1">
          <mxGeometry width="50" height="50" relative="1" as="geometry">
            <mxPoint x="806" y="264" as="sourcePoint" />
            <mxPoint x="806" y="230" as="targetPoint" />
            <Array as="points" />
          </mxGeometry>
        </mxCell>
        <mxCell id="BNmmFgK4MU3GEjyBa_c--45" value="" style="endArrow=none;html=1;rounded=0;" parent="1" edge="1">
          <mxGeometry width="50" height="50" relative="1" as="geometry">
            <mxPoint x="806" y="298" as="sourcePoint" />
            <mxPoint x="806" y="264" as="targetPoint" />
            <Array as="points" />
          </mxGeometry>
        </mxCell>
        <mxCell id="BNmmFgK4MU3GEjyBa_c--47" value="" style="endArrow=none;html=1;rounded=0;strokeColor=#000000;" parent="1" edge="1">
          <mxGeometry width="50" height="50" relative="1" as="geometry">
            <mxPoint x="616" y="297" as="sourcePoint" />
            <mxPoint x="616" y="263" as="targetPoint" />
            <Array as="points" />
          </mxGeometry>
        </mxCell>
        <mxCell id="BNmmFgK4MU3GEjyBa_c--48" value="" style="endArrow=classic;html=1;rounded=0;strokeColor=#FF0505;endFill=1;" parent="1" edge="1">
          <mxGeometry width="50" height="50" relative="1" as="geometry">
            <mxPoint x="616" y="264" as="sourcePoint" />
            <mxPoint x="616" y="230" as="targetPoint" />
            <Array as="points" />
          </mxGeometry>
        </mxCell>
        <mxCell id="BNmmFgK4MU3GEjyBa_c--49" value="" style="endArrow=none;html=1;rounded=0;strokeColor=#000000;endFill=0;startArrow=none;startFill=0;" parent="1" edge="1">
          <mxGeometry width="50" height="50" relative="1" as="geometry">
            <mxPoint x="616" y="440" as="sourcePoint" />
            <mxPoint x="616" y="350" as="targetPoint" />
          </mxGeometry>
        </mxCell>
        <mxCell id="BNmmFgK4MU3GEjyBa_c--50" value="" style="endArrow=none;html=1;rounded=0;strokeColor=#000000;endFill=0;startArrow=none;startFill=0;" parent="1" edge="1">
          <mxGeometry width="50" height="50" relative="1" as="geometry">
            <mxPoint x="260" y="440" as="sourcePoint" />
            <mxPoint x="620" y="440" as="targetPoint" />
          </mxGeometry>
        </mxCell>
      </root>
    </mxGraphModel>
  </diagram>
</mxfile>
